<svg xmlns="http://www.w3.org/2000/svg" xmlns:xlink="http://www.w3.org/1999/xlink" width="800" zoomAndPan="magnify" viewBox="0 0 600 599.999999" height="800" preserveAspectRatio="xMidYMid meet" version="1.2"><defs><clipPath id="b844f8b42a"><path d="M 201.339844 249 L 329 249 L 329 268 L 201.339844 268 Z M 201.339844 249 "/></clipPath><clipPath id="9c44cafe68"><path d="M 265 257 L 374.589844 257 L 374.589844 274 L 265 274 Z M 265 257 "/></clipPath></defs><g id="7f15f9f401"><g style="fill:#f22e52;fill-opacity:1;"><g transform="translate(59.999998, 379.500004)"><path style="stroke:none" d="M 138.828125 -147.59375 L 78.6875 0 L 60.765625 0 L 0.625 -147.59375 L 16.578125 -147.59375 C 18.367188 -147.59375 19.8125 -147.144531 20.90625 -146.25 C 22.007812 -145.351562 22.832031 -144.21875 23.375 -142.84375 L 64.984375 -38.71875 C 65.878906 -36.382812 66.753906 -33.84375 67.609375 -31.09375 C 68.472656 -28.351562 69.25 -25.472656 69.9375 -22.453125 C 70.625 -25.472656 71.34375 -28.351562 72.09375 -31.09375 C 72.851562 -33.84375 73.675781 -36.382812 74.5625 -38.71875 L 116.078125 -142.84375 C 116.484375 -144.007812 117.285156 -145.09375 118.484375 -146.09375 C 119.691406 -147.09375 121.15625 -147.59375 122.875 -147.59375 Z M 138.828125 -147.59375 "/></g></g><g style="fill:#efefef;fill-opacity:1;"><g transform="translate(189.164055, 379.500004)"><path style="stroke:none" d="M 31.921875 -83.421875 C 35.222656 -90.566406 39.273438 -96.144531 44.078125 -100.15625 C 48.890625 -104.175781 54.757812 -106.1875 61.6875 -106.1875 C 63.882812 -106.1875 65.992188 -105.945312 68.015625 -105.46875 C 70.046875 -104.988281 71.851562 -104.234375 73.4375 -103.203125 L 72.09375 -89.5 C 71.6875 -87.78125 70.65625 -86.921875 69 -86.921875 C 68.039062 -86.921875 66.632812 -87.125 64.78125 -87.53125 C 62.925781 -87.945312 60.832031 -88.15625 58.5 -88.15625 C 55.207031 -88.15625 52.269531 -87.675781 49.6875 -86.71875 C 47.113281 -85.757812 44.8125 -84.332031 42.78125 -82.4375 C 40.757812 -80.550781 38.941406 -78.21875 37.328125 -75.4375 C 35.722656 -72.65625 34.265625 -69.484375 32.953125 -65.921875 L 32.953125 0 L 14.515625 0 L 14.515625 -104.328125 L 25.03125 -104.328125 C 27.019531 -104.328125 28.390625 -103.945312 29.140625 -103.1875 C 29.898438 -102.4375 30.414062 -101.132812 30.6875 -99.28125 Z M 31.921875 -83.421875 "/></g></g><g style="fill:#efefef;fill-opacity:1;"><g transform="translate(253.844251, 379.500004)"><path style="stroke:none" d="M 100.3125 -104.328125 L 100.3125 0 L 89.390625 0 C 86.785156 0 85.140625 -1.269531 84.453125 -3.8125 L 83.015625 -15.03125 C 78.484375 -10.019531 73.398438 -5.988281 67.765625 -2.9375 C 62.140625 0.113281 55.6875 1.640625 48.40625 1.640625 C 42.707031 1.640625 37.675781 0.695312 33.3125 -1.1875 C 28.957031 -3.070312 25.300781 -5.726562 22.34375 -9.15625 C 19.394531 -12.59375 17.179688 -16.75 15.703125 -21.625 C 14.222656 -26.5 13.484375 -31.890625 13.484375 -37.796875 L 13.484375 -104.328125 L 31.828125 -104.328125 L 31.828125 -37.796875 C 31.828125 -29.898438 33.628906 -23.789062 37.234375 -19.46875 C 40.835938 -15.144531 46.347656 -12.984375 53.765625 -12.984375 C 59.179688 -12.984375 64.242188 -14.269531 68.953125 -16.84375 C 73.660156 -19.414062 78.003906 -22.96875 81.984375 -27.5 L 81.984375 -104.328125 Z M 100.3125 -104.328125 "/></g></g><g style="fill:#efefef;fill-opacity:1;"><g transform="translate(358.383084, 379.500004)"><path style="stroke:none" d="M 172.40625 -147.59375 L 172.40625 0 L 154.90625 0 L 154.90625 -108.453125 C 154.90625 -109.890625 154.953125 -111.429688 155.046875 -113.078125 C 155.148438 -114.734375 155.273438 -116.414062 155.421875 -118.125 L 104.75 -25.84375 C 103.164062 -22.757812 100.757812 -21.21875 97.53125 -21.21875 L 94.65625 -21.21875 C 91.425781 -21.21875 89.019531 -22.757812 87.4375 -25.84375 L 35.734375 -118.546875 C 36.148438 -114.898438 36.359375 -111.535156 36.359375 -108.453125 L 36.359375 0 L 18.84375 0 L 18.84375 -147.59375 L 33.578125 -147.59375 C 35.359375 -147.59375 36.726562 -147.421875 37.6875 -147.078125 C 38.65625 -146.734375 39.582031 -145.769531 40.46875 -144.1875 L 91.453125 -53.34375 C 92.273438 -51.695312 93.082031 -49.976562 93.875 -48.1875 C 94.664062 -46.40625 95.40625 -44.585938 96.09375 -42.734375 C 96.78125 -44.585938 97.5 -46.425781 98.25 -48.25 C 99.007812 -50.070312 99.832031 -51.804688 100.71875 -53.453125 L 150.78125 -144.1875 C 151.601562 -145.769531 152.507812 -146.734375 153.5 -147.078125 C 154.5 -147.421875 155.894531 -147.59375 157.6875 -147.59375 Z M 172.40625 -147.59375 "/></g></g><g clip-rule="nonzero" clip-path="url(#b844f8b42a)"><path style=" stroke:none;fill-rule:nonzero;fill:#f22e52;fill-opacity:1;" d="M 328.644531 262.46875 C 287.046875 241.824219 255.832031 264.765625 217.09375 259.886719 C 224.972656 263.335938 234.472656 267.460938 262.203125 265.308594 C 239.289062 269.824219 209.246094 265.898438 201.519531 254.992188 C 236.765625 267.882812 287.472656 230.515625 328.644531 262.46875 Z M 328.644531 262.46875 "/></g><g clip-rule="nonzero" clip-path="url(#9c44cafe68)"><path style=" stroke:none;fill-rule:nonzero;fill:#f22e52;fill-opacity:1;" d="M 265.101562 257.316406 C 265.097656 257.34375 269.671875 267.429688 301.480469 265.648438 C 314.269531 265.195312 368.695312 255.46875 374.402344 273.601562 C 367.480469 261.441406 316.382812 269.648438 301.90625 270.160156 C 278.023438 271 267.429688 264.074219 265.101562 257.316406 Z M 265.101562 257.316406 "/></g><path style=" stroke:none;fill-rule:nonzero;fill:#f22e52;fill-opacity:1;" d="M 202.976562 268.878906 C 216.75 267.691406 216.484375 262.179688 216.484375 262.164062 C 217.332031 263.320312 220.621094 262.671875 219.734375 264.019531 C 217.726562 267.0625 210.195312 270.34375 202.976562 268.878906 Z M 202.976562 268.878906 "/></g></svg>