<svg width="70" height="89" viewBox="0 0 70 89" fill="none" xmlns="http://www.w3.org/2000/svg">
<path d="M31.7037 83.407C28.4691 83.407 26.3005 81.951 25.1978 79.0389L9.20867 42.7314C9.87029 42.3674 10.7525 42.0762 11.8552 41.8578C12.9579 41.5665 13.987 41.4209 14.9427 41.4209C17.5157 41.4209 19.6476 42.0034 21.3384 43.1682C23.1027 44.2602 24.3892 45.8618 25.1979 47.9731L30.9318 61.4574L28.6162 68.0095L29.7189 68.4463L50.3394 11.5521C52.0302 7.18404 55.4854 5 60.7049 5C61.587 5 62.5427 5.1456 63.5719 5.43681C64.6746 5.65521 65.5935 5.94642 66.3287 6.31042L38.2097 79.0389C37.6951 80.4221 36.8497 81.5142 35.6735 82.315C34.5708 83.043 33.2475 83.407 31.7037 83.407Z" fill="black"/>
<path d="M10.5391 24.6017C14.7028 24.6017 18.0781 27.9771 18.0781 32.1408C18.0781 36.3046 14.7028 39.6799 10.5391 39.6799C6.37535 39.6798 3 36.3045 3 32.1408C3.00004 27.9771 6.37537 24.6018 10.5391 24.6017ZM12.4424 28.801C11.2604 28.4342 10.2419 28.6822 9.43359 29.1672C8.64079 29.6429 8.05035 30.3442 7.66504 30.9035C7.47038 31.1861 7.32224 31.4403 7.22266 31.6252C7.17275 31.7179 7.13548 31.7942 7.10938 31.8478C7.09634 31.8746 7.08617 31.8961 7.0791 31.9113C7.07565 31.9187 7.07233 31.9245 7.07031 31.9289C7.06932 31.9311 7.06899 31.9333 7.06836 31.9348L7.06738 31.9367L7.06641 31.9377L7.98047 32.3439V32.343C7.98136 32.341 7.98306 32.3371 7.98535 32.3322C7.98998 32.3223 7.99759 32.3064 8.00781 32.2853C8.02845 32.2429 8.06071 32.1793 8.10352 32.0998C8.18941 31.9403 8.31893 31.7172 8.48926 31.4699C8.83425 30.9692 9.32776 30.3979 9.94824 30.0256C10.5535 29.6624 11.2789 29.4868 12.1465 29.756C13.0358 30.0322 14.1359 30.7941 15.4219 32.4474L16.2109 31.8342C14.8585 30.0954 13.6027 29.1611 12.4424 28.801Z" fill="black"/>
<path d="M38.0417 43.3924L26.9529 48.3817L25.0974 44.2567L39.4392 37.8036L38.0417 43.3924ZM44.1892 40.6268L39.0652 42.9315L42.1404 36.5877L42.3328 36.5018L44.1892 40.6268Z" fill="black"/>
</svg>
