<svg width="73" height="89" viewBox="0 0 73 89" fill="none" xmlns="http://www.w3.org/2000/svg">
<path d="M33.195 83.1429C30.1305 83.1429 28.0758 81.7103 27.0311 78.8452L11.8824 43.123C12.5092 42.7649 13.345 42.4784 14.3898 42.2635C15.4345 41.977 16.4096 41.8337 17.315 41.8337C19.7528 41.8337 21.7726 42.4068 23.3745 43.5528C25.0461 44.6272 26.265 46.203 27.0311 48.2802L32.4637 61.5472L30.2698 67.9936L31.3145 68.4234L50.8512 12.4465C52.4532 8.14882 55.7267 6 60.6718 6C61.5076 6 62.4131 6.14325 63.3882 6.42976C64.4329 6.64465 65.3035 6.93116 66 7.2893L39.359 78.8452C38.8715 80.2061 38.0705 81.2805 36.9561 82.0685C35.9114 82.7847 34.6577 83.1429 33.195 83.1429Z" fill="#0000FF"/>
<path d="M13.1426 25.2857C17.0875 25.2857 20.2861 28.6071 20.2861 32.7037C20.2859 36.8001 17.0873 40.1207 13.1426 40.1207C9.19794 40.1205 6.0002 36.8 6 32.7037C6 28.6072 9.19782 25.2859 13.1426 25.2857ZM14.96 29.4107C13.826 29.0453 12.8474 29.294 12.0752 29.775C11.3197 30.2457 10.7585 30.9379 10.3936 31.4879C10.2091 31.766 10.069 32.0168 9.97461 32.1988C9.92745 32.2898 9.89093 32.3648 9.86621 32.4176C9.85402 32.4436 9.84456 32.4651 9.83789 32.4801C9.83472 32.4871 9.83197 32.4933 9.83008 32.4976C9.82921 32.4996 9.82864 32.5021 9.82812 32.5035L9.82715 32.5054L10.2861 32.7027C10.6893 32.8753 10.7391 32.8963 10.7451 32.899H10.7461C10.747 32.8969 10.7489 32.8928 10.751 32.8883C10.7554 32.8784 10.7628 32.8619 10.7725 32.8414C10.792 32.7997 10.8221 32.7373 10.8623 32.6597C10.9437 32.5028 11.0665 32.2834 11.2275 32.0406C11.5546 31.5477 12.0211 30.9871 12.6045 30.6236C13.1713 30.2707 13.846 30.1027 14.6533 30.3629C15.4858 30.6314 16.5247 31.3757 17.7432 33.0025L18.5439 32.4029C17.2631 30.6928 16.0691 29.7684 14.96 29.4107Z" fill="#0000FF"/>
<path d="M39.1998 43.7733L28.6939 48.6825L26.9361 44.6239L40.523 38.2743L39.1998 43.7733ZM45.024 41.0526L40.1695 43.3202L43.0826 37.079L43.2652 36.994L45.024 41.0526Z" fill="#0000FF"/>
</svg>
