<svg width="68" height="89" viewBox="0 0 68 89" fill="none" xmlns="http://www.w3.org/2000/svg">
<path d="M31.195 78.2858C28.1305 78.2858 26.0758 76.9063 25.0311 74.1473L9.88237 39.7481C10.5092 39.4033 11.345 39.1274 12.3898 38.9204C13.4345 38.6445 14.4096 38.5066 15.315 38.5066C17.7528 38.5066 19.7726 39.0584 21.3745 40.162C23.0461 41.1966 24.265 42.714 25.0311 44.7143L30.4637 57.4899L28.2698 63.6976L29.3145 64.1115L48.8512 10.2077C50.4532 6.06924 53.7267 4 58.6718 4C59.5076 4 60.4131 4.13795 61.3882 4.41385C62.4329 4.62077 63.3035 4.89667 64 5.24155L37.359 74.1473C36.8715 75.4578 36.0705 76.4924 34.9561 77.2511C33.9114 77.9409 32.6577 78.2858 31.195 78.2858Z" fill="#F6EEE3"/>
<path d="M11.1426 22.5714C15.0874 22.5714 18.286 25.7693 18.2861 29.714C18.2861 33.6589 15.0875 36.8576 11.1426 36.8576C7.19781 36.8574 4 33.6588 4 29.714C4.00015 25.7693 7.19791 22.5716 11.1426 22.5714ZM12.9541 26.5255C11.826 26.1755 10.8532 26.4125 10.082 26.8751C9.3265 27.3285 8.76549 27.9961 8.39941 28.5275C8.21423 28.7963 8.07326 29.0381 7.97852 29.214C7.93121 29.3019 7.89497 29.3739 7.87012 29.425C7.85777 29.4503 7.84757 29.471 7.84082 29.4855C7.83753 29.4926 7.83495 29.4988 7.83301 29.5031C7.83209 29.5052 7.83166 29.5076 7.83105 29.5089L7.83008 29.5109H7.8291C7.8334 29.5131 7.87626 29.5328 8.28613 29.715C8.7351 29.9145 8.74313 29.9179 8.74316 29.9181V29.9171C8.74396 29.9154 8.74595 29.9119 8.74805 29.9074C8.75238 29.898 8.7589 29.8823 8.76855 29.8625C8.78797 29.8226 8.81904 29.7626 8.85938 29.6876C8.94039 29.5372 9.06214 29.3269 9.22266 29.0939C9.54846 28.621 10.0133 28.0826 10.5967 27.7326C11.1648 27.3918 11.8445 27.2281 12.6582 27.4806C13.4936 27.7401 14.5325 28.4575 15.749 30.0216L16.1436 29.715L16.5381 29.4074C15.2552 27.758 14.0604 26.869 12.9541 26.5255Z" fill="#F6EEE3"/>
<path d="M37.1998 40.3744L26.6939 45.101L24.9361 41.1928L38.523 35.0795L37.1998 40.3744ZM43.024 37.7543L38.1695 39.9379L41.0826 33.9272L41.2652 33.8461L43.024 37.7543Z" fill="#F6EEE3"/>
</svg>
