<svg width="70" height="89" viewBox="0 0 70 89" fill="none" xmlns="http://www.w3.org/2000/svg">
<path d="M32.195 82.2858C29.1305 82.2858 27.0758 80.9063 26.0311 78.1473L10.8824 43.7481C11.5092 43.4033 12.345 43.1274 13.3898 42.9204C14.4345 42.6445 15.4096 42.5066 16.315 42.5066C18.7528 42.5066 20.7726 43.0584 22.3745 44.162C24.0461 45.1966 25.265 46.714 26.0311 48.7143L31.4637 61.4899L29.2698 67.6976L30.3145 68.1115L49.8512 14.2077C51.4532 10.0692 54.7267 8 59.6718 8C60.5076 8 61.4131 8.13795 62.3882 8.41385C63.4329 8.62077 64.3035 8.89667 65 9.24155L38.359 78.1473C37.8715 79.4578 37.0705 80.4924 35.9561 81.2511C34.9114 81.9409 33.6577 82.2858 32.195 82.2858Z" fill="#FF5900"/>
<path d="M12.1426 26.5714C16.0874 26.5714 19.286 29.7693 19.2861 33.714C19.2861 37.6589 16.0875 40.8576 12.1426 40.8576C8.19781 40.8574 5 37.6588 5 33.714C5.00015 29.7693 8.19791 26.5716 12.1426 26.5714ZM13.9541 30.5255C12.826 30.1755 11.8532 30.4125 11.082 30.8751C10.3265 31.3285 9.76549 31.9961 9.39941 32.5275C9.21423 32.7963 9.07326 33.0381 8.97852 33.214C8.93121 33.3019 8.89497 33.3739 8.87012 33.425C8.85777 33.4503 8.84757 33.471 8.84082 33.4855C8.83753 33.4926 8.83495 33.4988 8.83301 33.5031C8.83209 33.5052 8.83166 33.5076 8.83105 33.5089L8.83008 33.5109H8.8291C8.83337 33.5131 8.87612 33.5328 9.28613 33.715C9.73511 33.9145 9.74313 33.9179 9.74316 33.9181V33.9171C9.74396 33.9154 9.74595 33.9119 9.74805 33.9074C9.75238 33.898 9.7589 33.8823 9.76855 33.8625C9.78797 33.8226 9.81904 33.7626 9.85938 33.6876C9.94039 33.5372 10.0621 33.3269 10.2227 33.0939C10.5485 32.621 11.0133 32.0826 11.5967 31.7326C12.1648 31.3918 12.8445 31.2281 13.6582 31.4806C14.4936 31.7401 15.5325 32.4575 16.749 34.0216L17.1436 33.715L17.5381 33.4074C16.2552 31.758 15.0604 30.869 13.9541 30.5255Z" fill="#FF5900"/>
<path d="M38.1998 44.3745L27.6939 49.101L25.9361 45.1928L39.523 39.0786L38.1998 44.3745ZM44.024 41.7543L39.1695 43.9379L42.0836 37.9262L42.2652 37.8452L44.024 41.7543Z" fill="#FF5900"/>
</svg>
